<?xml version="1.0" encoding="UTF-8" standalone="no"?>
<svg
   width="16"
   height="16"
   version="1.1"
   id="svg1"
   sodipodi:docname="SCHeightSprite2D.svg"
   inkscape:version="1.4 (86a8ad7, 2024-10-11)"
   xmlns:inkscape="http://www.inkscape.org/namespaces/inkscape"
   xmlns:sodipodi="http://sodipodi.sourceforge.net/DTD/sodipodi-0.dtd"
   xmlns="http://www.w3.org/2000/svg"
   xmlns:svg="http://www.w3.org/2000/svg">
  <defs
     id="defs1" />
  <sodipodi:namedview
     id="namedview1"
     pagecolor="#ffffff"
     bordercolor="#111111"
     borderopacity="1"
     inkscape:showpageshadow="0"
     inkscape:pageopacity="0"
     inkscape:pagecheckerboard="1"
     inkscape:deskcolor="#d1d1d1"
     inkscape:zoom="22.627417"
     inkscape:cx="6.2313785"
     inkscape:cy="8.8609319"
     inkscape:window-width="1497"
     inkscape:window-height="1211"
     inkscape:window-x="1330"
     inkscape:window-y="117"
     inkscape:window-maximized="0"
     inkscape:current-layer="svg1" />
  <path
     fill="#8da5f3"
     d="m -23.373562,-12.190041 a 4,4 0 0 0 -4,4.0000004 v 6 a 4,4 0 0 0 4,4 h 6 a 4,4 0 0 0 4,-4 v -6 a 4,4 0 0 0 -4,-4.0000004 z m -2,6.0000004 a 1,1 0 0 1 2,0 v 2 a 1,1 0 0 1 -2,0 z m 10,2 a 1,1 0 0 1 -2,0 v -2 a 1,1 0 0 1 2,0 z m -2.172,3.82799999 a 4,4 0 0 1 -5.656,0 1,1 0 0 1 1.414,-1.41399999 2,2 0 0 0 2.828,0 1,1 0 0 1 1.414,1.41399999 z"
     id="path1-8"
     style="fill:#f95db5;fill-opacity:1" />
  <path
     fill="#8da5f3"
     d="m 5.020815,1.0156114 a 4,4 0 0 0 -4,4.0000004 v 6.0000002 a 4,4 0 0 0 4,4 h 6 a 4,4 0 0 0 4,-4 V 5.0156118 a 4,4 0 0 0 -4,-4.0000004 z m -2,6.0000004 a 1,1 0 0 1 2,0 v 2 a 1,1 0 0 1 -2,0 z m 10,2 a 1,1 0 0 1 -2,0 v -2 a 1,1 0 0 1 2,0 z m -2.172,3.8280002 a 4,4 0 0 1 -5.656,0 1,1 0 0 1 1.414,-1.414 2,2 0 0 0 2.828,0 1,1 0 0 1 1.414,1.414 z"
     id="path1-8-8"
     style="fill:#f95db5;fill-opacity:1" />
  <path
     fill="#8da5f3"
     d="M 2.1715724,13.828428 C 2.8655624,14.541468 3.8954302,15.000001 5,15.000001 h 6 c 2.209139,0 4,-1.790861 4,-4 V 5.0000004 C 15,3.8638159 14.618228,2.9303967 13.765598,2.110101 c 0,0 -11.6137568,11.698054 -11.5940256,11.718327 z M 13,9 c 0,1.333333 -2,1.333333 -2,0 V 7.0000004 c 0,-1.3333328 2,-1.3333328 2,0 z m -2.172,3.828001 c -1.5619994,1.561528 -4.0940006,1.561528 -5.656,0 -0.9103224,-0.942526 0.4714736,-2.324322 1.414,-1.414 0.7809997,0.780764 2.0470003,0.780764 2.828,0 0.942526,-0.910322 2.324322,0.471474 1.414,1.414 z"
     id="path1-8-8-5"
     style="fill:#a4005d;fill-opacity:1"
     sodipodi:nodetypes="ssssssssssssccccc" />
  <path
     fill="#8da5f3"
     d="m -17.815159,-12.193006 c -0.204273,4.39e-4 1.018148,0.09343 1.4523,0.417821 1.001063,0.747971 1.151337,2.6044158 1.142332,3.5722534 l -0.05817,6.252062 c -0.01501,1.61329699 -1.655997,2.45387399 -2.296373,2.74773699 -1.734415,0.79591001 -4.760687,1.01309201 -4.617792,1.01309201 h 4.8193 c 2.209139,0 4,-1.79086101 4,-4 v -6 c 0,-2.2754304 -1.883977,-4.0084644 -4.003906,-4.0039064 z"
     id="path2-8"
     style="fill:#d30071;fill-opacity:1"
     sodipodi:nodetypes="sssssssssss" />
  <path
     fill="#8da5f3"
     d="m -17.428767,-12.199593 c 0.24814,-3.99e-4 -3.861742,-0.129683 -5.645221,0.640018 -1.163141,0.501979 -2.566242,1.7231683 -2.55053,3.3787404 l 0.05933,6.252062 c 0.01531,1.61329699 0.305199,2.35092199 0.768822,2.89689199 0.726247,0.85524101 1.789648,0.84184001 1.643891,0.84184001 h -0.217265 c -2.25339,0 -4.04106,-1.79086101 -4.04106,-4 v -6 c 0,-2.2754304 1.886478,-3.9965534 4.033248,-4.0000004 z"
     id="path2-88-2"
     style="fill:#ffbee5;fill-opacity:1;stroke-width:1.00997"
     sodipodi:nodetypes="sssssssssss" />
</svg>
