<?xml version="1.0" encoding="UTF-8" standalone="no"?>
<svg
   height="16"
   width="16"
   viewBox="0 0 16 16"
   version="1.1"
   id="svg1"
   sodipodi:docname="SCShadowSettings.svg"
   inkscape:version="1.4 (86a8ad7, 2024-10-11)"
   xmlns:inkscape="http://www.inkscape.org/namespaces/inkscape"
   xmlns:sodipodi="http://sodipodi.sourceforge.net/DTD/sodipodi-0.dtd"
   xmlns="http://www.w3.org/2000/svg"
   xmlns:svg="http://www.w3.org/2000/svg">
  <defs
     id="defs1">
    <clipPath
       clipPathUnits="userSpaceOnUse"
       id="clipPath2">
      <path
         style="fill:#b81b74;stroke:#e7e7e7;stroke-width:0"
         d="m 32.228706,13.386415 -14.477417,7.588124 7.348718,3.665055 7.078957,-3.664422 z"
         id="path3"
         sodipodi:nodetypes="ccccc" />
    </clipPath>
    <clipPath
       clipPathUnits="userSpaceOnUse"
       id="clipPath6">
      <path
         style="fill:#b81b74;fill-opacity:1;stroke:#b81b74;stroke-width:0;stroke-opacity:1"
         d="M 39.625,1.4335937 32.640625,4.8632812 31.625,5.6679687 27.621094,7.4375 l -0.965868,0.4723654 -1.040318,0.7709884 2.503635,2.9753592 5.00499,2.055029 6.684369,-3.8117471 0.441942,-8.2090678 z"
         id="path6"
         sodipodi:nodetypes="ccccccccccc" />
    </clipPath>
  </defs>
  <sodipodi:namedview
     id="namedview1"
     pagecolor="#ffffff"
     bordercolor="#111111"
     borderopacity="1"
     inkscape:showpageshadow="0"
     inkscape:pageopacity="0"
     inkscape:pagecheckerboard="1"
     inkscape:deskcolor="#d1d1d1"
     inkscape:zoom="22.627417"
     inkscape:cx="9.8111066"
     inkscape:cy="10.938058"
     inkscape:window-width="1773"
     inkscape:window-height="1211"
     inkscape:window-x="497"
     inkscape:window-y="70"
     inkscape:window-maximized="0"
     inkscape:current-layer="svg1" />
  <path
     d="m8 2 6 3v6l-6 3-6-3V5zm0 12V8l6-3M8 8 2 5"
     fill="none"
     stroke-width="2"
     stroke="#ffca5f"
     id="path1"
     style="stroke:#f95db5;stroke-opacity:1" />
  <path
     d="m 32.625,-0.94446598 6,2.99999998 v 6 l -6,3 -6,-3 v -6 z m 0,11.99999998 v -6 l 6,-3 m -6,3 -6,-3"
     fill="none"
     stroke-width="2"
     stroke="#ffca5f"
     id="path1-6"
     style="stroke:#a4005d;stroke-opacity:1"
     clip-path="url(#clipPath6)"
     transform="translate(-24.617188,2.9375)" />
</svg>
